<?xml version="1.0" standalone="no"?>
<!DOCTYPE svg PUBLIC "-//W3C//DTD SVG 20010904//EN"
 "http://www.w3.org/TR/2001/REC-SVG-20010904/DTD/svg10.dtd">
<svg version="1.0" xmlns="http://www.w3.org/2000/svg"
 width="800.000000pt" height="800.000000pt" viewBox="0 0 800.000000 800.000000"
 preserveAspectRatio="xMidYMid meet">

<g transform="translate(0.000000,800.000000) scale(0.100000,-0.100000)"
fill="#000000" stroke="none">
<path d="M1960 7993 c-8 -3 -18 -11 -22 -17 -6 -8 -10 -7 -16 2 -25 38 -338
-230 -515 -441 -158 -187 -232 -295 -170 -246 16 12 17 12 6 -1 -10 -13 -83
-151 -83 -157 0 -14 22 4 41 32 13 19 29 35 35 35 5 0 19 9 31 19 21 20 76 29
106 16 37 -16 11 -174 -48 -289 -14 -27 -25 -57 -25 -65 -1 -9 -9 -34 -20 -56
-11 -22 -19 -45 -20 -50 0 -6 -13 -26 -28 -45 -16 -19 -39 -64 -52 -100 -33
-91 -54 -131 -85 -160 -22 -21 -28 -22 -35 -10 -8 13 -15 70 -11 93 1 4 -14 5
-33 2 -21 -4 -36 -3 -41 5 -5 8 -12 7 -26 -6 -21 -19 -49 -13 -49 11 0 32 -16
12 -43 -53 -15 -37 -27 -72 -27 -77 0 -6 -9 -28 -20 -50 -11 -22 -20 -47 -20
-56 0 -10 -8 -37 -18 -61 -11 -24 -25 -67 -31 -96 -20 -80 -35 -78 -27 4 4 38
9 80 11 94 3 14 -2 5 -10 -20 -19 -58 -70 -368 -87 -530 -19 -184 -16 -1035 6
-1790 34 -1153 11 -1632 -125 -2600 -56 -405 -165 -1025 -200 -1143 -16 -56
-29 -77 -78 -127 -33 -33 -54 -60 -48 -60 6 0 37 25 67 55 31 31 77 70 102 88
25 17 97 71 160 118 62 48 137 98 166 113 62 31 67 41 13 21 -50 -17 -81 -37
-154 -97 -32 -26 -63 -48 -68 -48 -20 0 -21 34 -4 93 27 94 82 298 115 427 16
63 36 140 45 170 38 135 116 562 130 708 36 392 40 411 65 386 20 -20 15 -620
-8 -954 -12 -168 -24 -368 -28 -445 -3 -77 -12 -157 -19 -177 -7 -21 -10 -38
-7 -38 14 0 88 64 195 169 159 157 172 164 311 169 141 5 279 -10 356 -40 33
-13 60 -26 60 -30 0 -4 -39 -46 -87 -94 l-86 -88 7 67 c4 45 3 67 -4 67 -38 0
-41 -197 -6 -391 13 -73 27 -141 30 -149 3 -8 10 -34 16 -57 7 -26 17 -43 26
-43 16 0 15 4 -13 115 -8 33 -18 87 -23 120 -4 33 -13 93 -20 132 l-13 72 44
58 c24 32 74 87 111 123 36 36 116 128 178 205 61 77 126 156 144 175 17 19
42 49 54 65 91 119 163 162 258 152 83 -9 99 -23 120 -112 18 -75 18 -77 -5
-168 -12 -51 -28 -117 -35 -147 -21 -86 -99 -297 -139 -373 -15 -28 -15 -28
-22 49 -7 75 -2 219 11 317 4 30 3 47 -4 47 -16 0 -21 -23 -34 -147 -12 -118
-1 -367 22 -473 28 -127 54 -210 66 -210 17 0 17 -4 -1 56 -8 28 -24 94 -35
147 l-19 96 30 68 c17 37 37 84 45 103 9 19 19 44 24 55 31 67 78 231 115 399
3 16 10 25 14 20 8 -9 53 -212 71 -317 5 -28 22 -124 39 -212 16 -88 38 -217
47 -287 l17 -128 232 0 232 0 6 113 c3 61 3 187 0 280 -3 92 -3 167 1 167 4 0
35 -24 71 -53 35 -29 83 -62 107 -74 53 -26 130 -60 162 -73 14 -5 44 -21 66
-35 50 -32 88 -106 122 -238 17 -64 27 -87 39 -87 14 0 15 5 4 48 -45 172 -84
256 -139 296 -17 12 -67 38 -111 56 -111 47 -176 83 -250 138 -58 43 -64 51
-74 97 -5 28 -13 100 -16 160 -8 153 -23 328 -40 475 -43 368 -56 470 -67 518
-6 28 -9 55 -6 58 4 3 26 -9 50 -28 25 -18 79 -59 121 -91 42 -31 120 -83 174
-114 54 -32 104 -63 110 -69 20 -19 263 -138 269 -132 3 4 -28 24 -68 45 -289
156 -581 349 -651 432 -28 33 -86 246 -71 261 5 4 42 -5 83 -21 86 -35 130
-34 58 0 -49 24 -141 120 -169 176 -17 33 -52 177 -68 282 -6 38 -14 78 -17
91 -7 29 10 28 51 -3 40 -30 142 -78 158 -73 6 2 -19 26 -56 54 -43 31 -90 78
-126 127 -63 84 -71 108 -105 327 -9 58 -20 121 -25 140 -6 19 -6 38 -1 43 9
9 152 -110 189 -157 35 -45 31 -17 -14 91 -41 102 -51 161 -15 89 29 -57 106
-158 160 -211 55 -53 66 -54 25 0 -43 57 -207 445 -188 445 2 0 33 -20 70 -45
91 -62 100 -60 48 10 -26 36 -58 120 -73 197 -10 47 -10 61 3 85 26 50 97 112
170 147 70 35 224 73 250 63 11 -5 10 -19 -5 -84 -20 -81 -24 -157 -13 -237 7
-46 23 -47 24 -2 0 27 47 86 69 86 18 0 47 -27 75 -71 17 -27 25 -127 12 -166
-14 -43 -73 -42 -120 2 -14 13 -26 19 -26 12 0 -33 45 -167 79 -236 25 -50 36
-83 30 -92 -5 -8 -3 -17 4 -21 27 -18 306 -1 384 23 26 8 35 20 57 75 14 35
26 69 26 75 0 6 -16 9 -36 7 -33 -3 -38 -7 -54 -48 -22 -58 -57 -76 -166 -85
-116 -10 -118 -8 -183 138 -28 63 -27 83 9 124 17 18 30 44 30 58 0 31 10 56
20 50 4 -3 24 2 44 10 19 8 37 15 39 15 2 0 7 -25 10 -56 6 -54 20 -84 39 -84
6 0 7 16 3 38 -7 42 8 92 27 92 7 0 19 -9 26 -20 10 -17 10 -27 -4 -56 -13
-26 -14 -38 -5 -47 7 -7 14 -7 20 -2 15 17 31 77 31 117 l0 38 39 -24 c21 -14
41 -22 44 -20 3 3 10 -4 17 -16 10 -19 7 -83 -6 -132 -4 -12 5 -22 32 -33 20
-8 39 -13 41 -11 2 2 10 40 17 84 12 76 8 186 -10 280 l-7 34 54 -27 c54 -28
92 -52 142 -92 41 -33 52 -28 28 11 -12 19 -19 40 -16 48 3 8 -13 28 -42 51
-79 61 -96 77 -90 83 3 3 16 -1 29 -10 12 -9 27 -16 33 -16 5 0 -3 9 -20 20
-17 11 -38 17 -49 14 -12 -4 -16 -2 -12 5 7 11 -17 38 -49 57 -26 15 -12 43
25 50 24 5 30 12 30 31 0 22 -2 24 -15 13 -12 -10 -21 -10 -41 -1 -36 16 -52
14 -26 -5 28 -20 28 -32 -2 -45 -20 -9 -35 -6 -89 20 -141 68 -404 140 -511
141 -17 0 -38 6 -47 13 -18 14 -57 86 -87 162 -49 123 -63 167 -87 265 -35
143 -34 139 -25 145 4 3 -1 22 -12 44 -15 31 -21 77 -30 229 l-11 190 77 119
c165 254 269 435 404 706 18 38 35 67 37 65 5 -5 -52 -315 -60 -328 -4 -6 -10
-45 -15 -88 -5 -42 -16 -126 -25 -187 -22 -149 -14 -266 24 -371 52 -142 188
-353 282 -438 21 -20 39 -39 39 -42 0 -13 -170 6 -318 36 -83 16 -158 30 -165
30 -46 -1 116 -46 378 -105 142 -31 150 -34 164 -57 31 -49 79 -147 75 -151
-5 -5 -100 15 -139 29 -13 5 -17 4 -10 -3 6 -6 46 -20 90 -31 53 -14 87 -29
100 -45 11 -12 37 -43 58 -67 l39 -45 -7 40 -7 40 42 -40 c23 -22 62 -70 86
-107 43 -67 59 -84 47 -50 -7 19 -34 64 -43 72 -17 15 -49 68 -43 73 3 4 21 0
40 -8 19 -8 47 -12 63 -8 31 6 177 -45 275 -96 28 -14 54 -28 58 -29 5 -2 5
12 2 32 -5 24 -3 36 4 36 6 0 11 -6 11 -13 0 -14 86 -120 103 -126 10 -4 7 15
-8 52 -14 33 20 18 70 -33 27 -27 51 -48 53 -45 2 2 -7 28 -22 57 -53 111
-115 266 -139 353 -86 303 -126 478 -156 680 -12 77 -26 167 -31 200 -18 104
-40 289 -39 325 0 32 2 30 25 -30 83 -219 142 -335 238 -479 242 -358 429
-528 769 -698 59 -30 107 -55 107 -57 0 -1 -39 -29 -86 -61 -47 -33 -81 -61
-75 -63 6 -2 24 6 41 18 37 26 38 12 4 -46 -15 -25 -24 -47 -22 -50 3 -2 24
26 46 63 56 92 64 100 102 117 29 12 41 12 79 0 24 -7 94 -20 155 -29 175 -25
179 -26 170 -34 -5 -4 -36 -15 -69 -25 -73 -22 -194 -94 -295 -176 -54 -43
-82 -59 -100 -58 -40 5 -33 30 21 75 27 24 47 43 45 43 -11 0 -96 -64 -96 -72
0 -4 -6 -8 -14 -8 -7 0 -21 -11 -30 -25 -16 -24 -16 -25 14 -19 37 8 50 -16
28 -55 -9 -14 -13 -32 -11 -38 3 -7 -5 -28 -16 -47 -13 -21 -18 -37 -12 -41 7
-4 7 -15 0 -32 -14 -38 -29 -107 -20 -97 4 5 29 39 54 76 50 71 143 159 220
208 58 36 69 38 58 7 -18 -47 -42 -157 -39 -174 3 -14 8 -11 21 14 19 36 60
52 86 36 13 -8 16 -28 16 -97 0 -79 -3 -88 -27 -112 -32 -33 -68 -27 -89 13
-14 28 -14 28 -17 -23 -4 -61 18 -160 54 -251 14 -35 23 -71 20 -78 -13 -35
183 -7 226 32 26 24 75 95 88 127 9 24 7 26 -18 26 -22 0 -32 -9 -51 -46 -31
-57 -59 -80 -112 -88 -65 -10 -96 27 -118 140 -12 66 -7 89 29 135 12 14 27
43 34 64 8 22 19 41 26 43 8 3 10 0 6 -7 -4 -6 -2 -11 3 -11 6 0 11 5 11 12 0
30 13 -6 19 -53 8 -66 31 -79 31 -17 0 49 12 74 30 63 8 -5 10 -22 6 -51 -4
-33 -2 -44 8 -44 15 0 26 30 26 72 0 34 16 44 39 24 10 -9 23 -16 29 -16 17 0
14 -37 -8 -100 l-19 -55 22 -17 c12 -9 25 -14 29 -10 15 15 59 191 70 277 10
77 9 101 -5 164 -10 41 -15 76 -13 78 9 10 65 -41 77 -69 6 -16 12 -70 12
-121 1 -80 -4 -105 -35 -195 -19 -56 -33 -102 -29 -102 3 1 21 22 39 48 18 26
55 79 83 117 27 39 67 102 89 140 33 59 115 155 133 155 14 0 -30 -190 -79
-345 -51 -161 -145 -332 -238 -434 -32 -35 -36 -41 -16 -31 33 17 203 190 226
229 18 30 41 44 32 19 -26 -71 -50 -163 -68 -258 -39 -214 -35 -203 -109 -270
-40 -36 -102 -77 -159 -105 -52 -26 -92 -49 -90 -51 9 -9 157 42 266 92 19 9
36 14 38 11 7 -7 -25 -283 -40 -349 -15 -65 -22 -76 -106 -182 -63 -78 -134
-136 -167 -136 -10 0 -25 -5 -33 -10 -13 -8 -12 -10 5 -11 30 -3 36 -3 88 4
61 9 61 1 -4 -99 -63 -96 -249 -289 -420 -433 -213 -180 -341 -285 -379 -311
-54 -38 -174 -135 -275 -223 -49 -43 -109 -88 -132 -99 -46 -23 -47 -23 -268
33 -121 31 -525 169 -655 224 -134 57 -212 86 -217 81 -6 -6 172 -92 230 -111
23 -7 78 -27 122 -45 183 -72 431 -152 576 -187 l75 -18 2 -165 c1 -151 -1
-168 -21 -200 -57 -95 -272 -317 -400 -413 -84 -63 -96 -84 -122 -194 -18 -78
-18 -73 -1 -73 9 0 21 31 36 90 l22 90 85 66 c111 87 213 187 309 304 134 162
177 237 172 298 l-3 37 -15 -49 c-8 -27 -21 -51 -28 -54 -10 -3 -12 24 -10
124 l3 128 55 1 c30 1 65 5 76 9 29 10 31 3 49 -178 25 -255 69 -476 129 -653
19 -56 38 -127 41 -158 22 -171 39 78 27 390 -8 213 -17 265 -43 265 -7 0 -9
-15 -4 -42 3 -24 8 -137 10 -253 4 -195 3 -208 -11 -176 -40 89 -91 348 -119
606 -8 77 -17 164 -21 194 -4 39 -3 51 6 46 6 -4 37 -13 68 -20 32 -7 73 -18
92 -24 19 -5 55 -15 80 -22 54 -14 107 -63 187 -169 31 -41 72 -95 91 -120 82
-107 269 -359 298 -401 35 -50 49 -108 59 -241 l7 -88 208 0 c233 0 220 -5
220 78 0 88 23 383 30 380 4 -2 63 -57 131 -122 68 -65 153 -142 189 -171 36
-29 72 -60 80 -70 8 -10 38 -35 67 -57 43 -31 60 -38 99 -38 36 0 44 3 36 12
-6 7 -28 76 -50 153 -23 77 -63 218 -91 314 -59 201 -131 534 -160 736 -54
371 -56 407 -56 875 l1 445 47 295 c26 162 53 318 61 346 8 32 33 78 65 120
28 37 49 74 46 81 -2 8 0 11 5 8 5 -3 43 63 84 148 74 152 77 156 148 215 135
110 215 216 202 266 -4 17 -2 26 6 26 7 0 10 -7 6 -15 -11 -30 5 -14 38 38 18
28 71 92 117 141 46 49 92 100 102 115 22 32 87 166 87 179 0 5 16 58 35 117
83 257 84 524 4 940 -39 200 -107 447 -165 600 -28 74 -132 295 -139 295 -3 0
-1 -9 5 -19 5 -11 10 -26 10 -34 0 -12 -4 -13 -24 -4 -14 7 -24 14 -24 17 1
19 -4 23 -13 10 -8 -12 -9 -11 -4 6 3 13 0 28 -10 37 -8 9 -15 21 -15 28 0 7
-7 19 -15 28 -9 9 -35 37 -59 64 -46 49 -63 60 -47 30 6 -10 17 -39 27 -65 9
-27 21 -48 25 -48 5 0 9 -6 9 -12 0 -16 -66 57 -86 95 -9 16 -18 27 -20 24 -3
-2 18 -50 46 -106 54 -108 75 -191 47 -191 -8 0 -18 12 -22 27 -6 26 -31 86
-58 143 -11 21 -32 59 -92 158 -21 35 -50 77 -56 82 -3 3 -18 23 -32 45 -50
76 -90 130 -99 133 -5 2 -24 28 -43 57 -32 51 -156 183 -201 215 -31 22 -67
77 -60 89 4 6 14 11 22 11 15 0 82 -34 143 -72 25 -16 32 -17 25 -6 -9 16 -80
99 -121 143 -31 32 -17 39 22 10 55 -43 49 -28 -26 60 -40 46 -76 82 -80 79
-5 -3 -9 1 -9 9 0 8 -9 22 -20 32 -11 10 -20 15 -20 10 0 -4 -7 -2 -15 5 -13
10 -13 15 -3 21 8 5 4 11 -16 19 -16 6 -26 16 -23 23 6 15 -67 89 -78 79 -5
-4 -5 -1 -1 6 9 16 -60 87 -196 200 -118 98 -123 101 -180 99 -26 -1 -44 1
-41 6 5 8 -3854 8 -3877 0z m4137 -169 c-3 -3 -12 -4 -19 -1 -8 3 -5 6 6 6 11
1 17 -2 13 -5z m103 -88 c0 -3 -4 -8 -10 -11 -5 -3 -10 -1 -10 4 0 6 5 11 10
11 6 0 10 -2 10 -4z m297 -362 c-3 -3 -12 -4 -19 -1 -8 3 -5 6 6 6 11 1 17 -2
13 -5z m-3789 -50 c-7 -8 -21 -24 -30 -35 -10 -10 -18 -23 -18 -27 0 -5 -11
-19 -25 -32 -14 -13 -25 -28 -25 -33 0 -5 -11 -22 -25 -39 -14 -16 -25 -35
-25 -43 0 -7 -6 -15 -12 -18 -7 -3 -22 -20 -33 -38 l-19 -34 24 18 c38 27 48
30 75 23 32 -8 41 -44 29 -118 -6 -32 -9 -58 -8 -58 1 0 34 32 75 70 40 39 79
70 87 70 7 0 10 5 7 10 -3 6 0 10 8 10 8 0 20 7 27 15 7 8 19 15 26 15 24 0
16 -47 -13 -77 -28 -29 -121 -172 -135 -205 -4 -10 -12 -18 -19 -18 -6 0 -9
-7 -5 -15 3 -8 2 -15 -3 -15 -5 0 -12 -8 -15 -17 -7 -19 -11 -26 -64 -107 -18
-28 -32 -54 -32 -59 0 -4 -13 -28 -29 -51 -17 -24 -33 -55 -37 -69 -3 -15 -9
-27 -13 -27 -4 0 -22 -25 -40 -55 -45 -75 -59 -72 -63 12 l-3 68 -45 -72 c-51
-81 -75 -102 -96 -81 -17 17 -20 109 -5 178 23 109 24 125 9 109 -21 -21 -88
-118 -88 -127 0 -5 -9 -18 -20 -30 -12 -12 -18 -22 -15 -22 3 0 -8 -20 -25
-44 -16 -25 -30 -48 -30 -53 0 -13 -59 -80 -60 -67 -1 42 241 523 347 690 120
187 314 414 354 414 17 0 18 -2 7 -16z m1109 -86 c-3 -8 -6 -5 -6 6 -1 11 2
17 5 13 3 -3 4 -12 1 -19z m-44 -185 c-4 -91 -3 -96 12 -78 37 48 45 54 60 49
22 -9 62 -81 70 -127 l7 -38 24 51 c17 36 29 50 44 50 19 0 20 -6 21 -107 0
-60 -1 -173 -2 -253 -1 -124 -3 -165 -8 -212 -2 -19 -33 -5 -43 20 -6 15 -18
42 -26 61 -8 19 -18 46 -22 60 l-6 26 -15 -30 c-19 -41 -64 -45 -101 -10 l-27
25 -20 -29 c-12 -16 -21 -35 -21 -42 0 -7 -22 -46 -50 -86 -27 -40 -50 -77
-50 -82 0 -5 -7 -11 -15 -15 -22 -8 -20 15 21 197 20 89 40 189 44 222 15 125
90 445 103 445 2 0 2 -44 0 -97z m-1548 15 c-4 -13 -16 -32 -26 -44 -11 -11
-19 -24 -19 -28 0 -15 -72 -161 -89 -181 -10 -11 -26 -42 -36 -70 -10 -27 -31
-76 -46 -107 -16 -32 -29 -62 -29 -68 0 -19 -69 -160 -79 -160 -31 0 -24 175
15 333 7 31 1 33 -41 11 -175 -93 -191 -98 -227 -62 l-22 22 -42 -48 c-23 -26
-53 -72 -68 -101 -29 -59 -42 -73 -58 -57 -13 13 15 139 48 207 13 29 24 58
25 66 0 8 20 46 43 84 46 73 80 94 93 58 8 -22 38 -53 52 -53 6 0 14 -6 18
-14 7 -12 17 -13 58 -4 28 5 54 14 60 19 5 5 15 9 22 9 12 0 102 57 113 72 3
4 25 10 49 14 36 6 54 17 100 65 59 62 98 78 86 37z m-731 -24 c9 -23 7 -59
-3 -69 -5 -6 -18 -37 -31 -70 -12 -33 -25 -62 -29 -65 -5 -3 -25 -43 -45 -90
-21 -47 -55 -115 -77 -152 -21 -36 -39 -71 -39 -77 0 -6 -2 -11 -4 -11 -2 0
-11 -3 -19 -6 -11 -4 -17 4 -22 26 -6 25 -9 29 -21 19 -8 -7 -14 -7 -14 -1 0
5 6 12 14 15 8 3 15 29 19 72 2 37 9 70 13 74 10 6 18 22 58 115 73 166 177
280 200 220z m2650 -136 c25 -40 35 -99 42 -254 6 -137 5 -152 -11 -157 -33
-13 -52 19 -67 113 -12 72 -22 286 -14 305 8 22 33 18 50 -7z m-1290 -63 c-1
-44 -9 -76 -26 -115 -9 -19 -24 -53 -33 -75 -56 -130 -125 -252 -152 -268 -21
-13 -42 21 -38 61 11 91 17 122 26 127 5 4 9 16 9 27 0 35 82 179 132 231 53
56 84 61 82 12z m3723 -1 c49 -13 169 -217 175 -299 3 -35 0 -40 -19 -43 -34
-5 -81 53 -147 178 -52 100 -66 147 -49 163 8 8 12 8 40 1z m-1624 -108 c16
-16 35 -43 44 -60 9 -17 30 -51 48 -76 55 -77 163 -298 171 -351 8 -45 -11
-60 -45 -37 -24 17 -84 95 -94 122 -5 11 -13 16 -23 12 -12 -5 -15 -2 -10 10
4 9 -6 28 -24 47 l-30 32 0 -56 c0 -42 -4 -58 -15 -63 -22 -8 -46 20 -89 105
-21 41 -50 97 -66 124 -16 28 -33 57 -37 65 -4 8 -13 21 -20 28 -14 15 -18 62
-5 62 12 0 72 -55 72 -67 0 -15 57 -66 63 -56 3 5 -1 41 -10 82 -18 89 -13
122 19 113 13 -3 36 -19 51 -36z m437 6 c78 -53 157 -124 219 -195 39 -44 71
-84 71 -90 0 -5 -9 -11 -20 -14 -11 -3 -20 -10 -20 -15 0 -12 -69 -1 -87 13
-6 6 -36 12 -66 15 -72 7 -93 -14 -103 -98 -4 -32 -11 -61 -15 -64 -9 -5 -67
35 -68 47 -1 10 -46 60 -133 151 -43 44 -78 86 -78 93 0 23 30 25 58 5 15 -10
43 -20 62 -22 19 -2 38 -7 42 -13 14 -19 20 5 9 36 -6 18 -11 43 -11 55 0 20
5 24 29 24 16 0 42 -5 57 -10 37 -14 40 -7 16 38 -15 29 -17 43 -9 51 14 14
17 14 47 -7z m-2346 -19 c7 -16 -28 -128 -46 -147 -4 -6 -8 -18 -8 -27 0 -25
-19 -34 -36 -17 -12 12 -13 23 -4 64 6 26 14 51 18 54 4 3 16 24 26 48 20 44
39 54 50 25z m3194 -25 c19 29 36 28 60 -3 11 -14 24 -25 28 -25 9 -1 79 -138
109 -214 16 -41 20 -112 7 -120 -13 -8 -55 33 -107 104 -72 97 -105 139 -159
203 -40 48 -46 60 -36 72 11 13 17 12 48 -12 l35 -27 15 22z m-2021 -170 c-3
-8 -6 -5 -6 6 -1 11 2 17 5 13 3 -3 4 -12 1 -19z m20 -230 c-3 -7 -5 -2 -5 12
0 14 2 19 5 13 2 -7 2 -19 0 -25z m3080 -20 c-3 -8 -6 -5 -6 6 -1 11 2 17 5
13 3 -3 4 -12 1 -19z m-5437 -222 c0 -3 -4 -8 -10 -11 -5 -3 -10 -1 -10 4 0 6
5 11 10 11 6 0 10 -2 10 -4z m1782 -368 c-5 -263 9 -486 38 -656 12 -68 20
-128 17 -135 -10 -32 -164 185 -201 284 -34 92 -39 144 -22 224 15 73 97 338
121 390 7 17 18 49 24 73 7 23 15 42 19 42 4 0 5 -100 4 -222z m-1845 190 c-3
-8 -6 -5 -6 6 -1 11 2 17 5 13 3 -3 4 -12 1 -19z m980 -45 c-3 -10 -5 -2 -5
17 0 19 2 27 5 18 2 -10 2 -26 0 -35z m4693 23 c0 -2 -7 -7 -16 -10 -8 -3 -12
-2 -9 4 6 10 25 14 25 6z m-3793 -73 c-3 -10 -5 -4 -5 12 0 17 2 24 5 18 2 -7
2 -21 0 -30z m1091 -108 c194 -326 395 -562 627 -735 72 -53 140 -102 153
-109 47 -25 22 -51 -76 -80 -29 -9 -53 -20 -52 -26 2 -18 104 -5 156 21 28 13
55 24 59 24 4 0 32 -16 62 -36 29 -19 87 -51 128 -70 42 -18 97 -53 123 -77
26 -24 67 -55 92 -69 56 -32 97 -65 90 -72 -3 -2 -34 -9 -69 -15 -84 -14 -296
10 -401 45 -228 76 -520 334 -655 579 -18 33 -49 89 -69 125 -62 110 -135 267
-167 358 -78 222 -106 319 -77 267 6 -11 40 -69 76 -130z m2629 15 c15 -36 41
-110 59 -165 18 -55 37 -99 43 -97 15 3 14 -15 -1 -20 -9 -3 -9 -15 0 -49 32
-128 41 -541 14 -624 -6 -16 -18 -55 -27 -85 -21 -70 -83 -200 -96 -200 -13 0
-12 20 12 208 40 312 24 713 -42 1041 -10 51 -19 98 -19 105 0 15 26 -36 57
-114z m-80 28 c-3 -8 -6 -5 -6 6 -1 11 2 17 5 13 3 -3 4 -12 1 -19z m-2890
-70 c-3 -8 -6 -5 -6 6 -1 11 2 17 5 13 3 -3 4 -12 1 -19z m2932 -93 c0 -5 -4
-3 -9 5 -5 8 -9 22 -9 30 0 16 17 -16 18 -35z m136 5 c-3 -5 -12 -10 -18 -10
-7 0 -6 4 3 10 19 12 23 12 15 0z m-4063 -42 c-6 -6 -7 0 -4 19 5 21 7 23 10
9 2 -10 0 -22 -6 -28z m4108 38 c0 -3 -4 -8 -10 -11 -5 -3 -10 -1 -10 4 0 6 5
11 10 11 6 0 10 -2 10 -4z m-173 -108 c-3 -8 -6 -5 -6 6 -1 11 2 17 5 13 3 -3
4 -12 1 -19z m180 -10 c-3 -8 -6 -5 -6 6 -1 11 2 17 5 13 3 -3 4 -12 1 -19z
m-167 -39 c0 -6 -4 -7 -10 -4 -5 3 -10 11 -10 16 0 6 5 7 10 4 6 -3 10 -11 10
-16z m-3963 -41 c-3 -8 -6 -5 -6 6 -1 11 2 17 5 13 3 -3 4 -12 1 -19z m960
-73 c0 -8 -4 -12 -9 -9 -4 3 -8 9 -8 15 0 5 4 9 8 9 5 0 9 -7 9 -15z m3023
-91 c0 -8 -4 -12 -10 -9 -5 3 -10 10 -10 16 0 5 5 9 10 9 6 0 10 -7 10 -16z
m-918 -41 c5 -86 -1 -103 -49 -161 -102 -121 -385 -421 -403 -427 -23 -7 -54
8 -74 37 -15 20 -12 25 68 102 94 93 287 307 372 414 31 39 63 72 70 72 9 0
15 -14 16 -37z m-2775 -35 c-3 -8 -6 -5 -6 6 -1 11 2 17 5 13 3 -3 4 -12 1
-19z m20 -140 c-3 -7 -5 -2 -5 12 0 14 2 19 5 13 2 -7 2 -19 0 -25z m-907 -20
c6 -24 15 -53 20 -66 6 -13 10 -38 10 -56 0 -19 6 -39 14 -45 8 -7 24 -44 36
-84 24 -80 111 -262 165 -347 19 -30 60 -83 90 -118 36 -39 52 -64 43 -66 -7
-2 -58 -9 -113 -15 -120 -14 -228 -41 -200 -51 16 -6 10 -13 -36 -42 -30 -19
-61 -41 -69 -50 -27 -26 -69 -50 -79 -44 -9 6 -6 55 4 65 3 2 -2 9 -10 15 -23
18 -72 381 -62 463 6 48 61 229 89 293 9 19 28 70 44 113 16 42 32 77 36 77 4
0 12 -19 18 -42z m3737 -80 c-2 -13 -4 -5 -4 17 -1 22 1 32 4 23 2 -10 2 -28
0 -40z m486 -128 c3 -38 1 -57 -3 -45 -8 19 -14 123 -6 114 2 -2 6 -33 9 -69z
m-515 -14 l3 -58 -128 -130 c-70 -71 -138 -131 -150 -135 -27 -6 -76 22 -71
41 2 7 72 84 156 171 83 87 152 162 152 167 0 5 8 8 18 6 13 -3 18 -15 20 -62z
m859 22 c-3 -8 -6 -5 -6 6 -1 11 2 17 5 13 3 -3 4 -12 1 -19z m160 -60 c-3 -8
-6 -5 -6 6 -1 11 2 17 5 13 3 -3 4 -12 1 -19z m-7 -43 c0 -25 -16 -24 -18 1
-1 15 2 22 8 19 6 -3 10 -12 10 -20z m-6003 -17 c-3 -8 -6 -5 -6 6 -1 11 2 17
5 13 3 -3 4 -12 1 -19z m2970 0 c-3 -8 -6 -5 -6 6 -1 11 2 17 5 13 3 -3 4 -12
1 -19z m-1493 4 c3 -5 -1 -9 -9 -9 -8 0 -12 4 -9 9 3 4 7 8 9 8 2 0 6 -4 9 -8z
m4363 -24 c-3 -7 -5 -2 -5 12 0 14 2 19 5 13 2 -7 2 -19 0 -25z m0 -33 c0 -8
-4 -15 -9 -15 -4 0 -8 7 -8 15 0 8 4 15 8 15 5 0 9 -7 9 -15z m114 -8 c-10 -9
-11 -8 -5 6 3 10 9 15 12 12 3 -3 0 -11 -7 -18z m-124 -39 c-3 -8 -6 -5 -6 6
-1 11 2 17 5 13 3 -3 4 -12 1 -19z m-4323 -43 c-4 -8 -8 -15 -10 -15 -2 0 -4
7 -4 15 0 8 4 15 10 15 5 0 7 -7 4 -15z m4303 -37 c-3 -8 -6 -5 -6 6 -1 11 2
17 5 13 3 -3 4 -12 1 -19z m-4277 -30 c0 -6 -7 -5 -15 2 -8 7 -15 17 -15 22 0
6 7 5 15 -2 8 -7 15 -17 15 -22z m850 1 c0 -6 -4 -7 -10 -4 -5 3 -10 11 -10
16 0 6 5 7 10 4 6 -3 10 -11 10 -16z m3117 -11 c-3 -8 -6 -5 -6 6 -1 11 2 17
5 13 3 -3 4 -12 1 -19z m-3048 -53 c0 -5 -4 -3 -9 5 -5 8 -9 22 -9 30 0 16 17
-16 18 -35z m3436 -15 c3 -5 -1 -10 -9 -10 -9 0 -16 5 -16 10 0 6 4 10 9 10 6
0 13 -4 16 -10z m-2837 -25 c-3 -3 -9 2 -12 12 -6 14 -5 15 5 6 7 -7 10 -15 7
-18z m1809 -10 c39 -19 78 -35 86 -35 28 0 39 -26 31 -77 -11 -75 -18 -87 -74
-117 l-52 -28 -62 68 c-46 50 -87 83 -151 118 -71 40 -84 51 -70 58 9 6 26 7
38 3 58 -17 87 -22 87 -14 0 5 -18 12 -40 15 -57 9 -58 22 -3 29 27 4 53 8 58
10 35 12 89 1 152 -30z m-1782 -45 c3 -5 1 -10 -4 -10 -6 0 -11 5 -11 10 0 6
2 10 4 10 3 0 8 -4 11 -10z m18 -40 c3 -11 1 -18 -4 -14 -5 3 -9 12 -9 20 0
20 7 17 13 -6z m-43 -39 c0 -5 3 -18 6 -28 5 -16 4 -16 -10 1 -18 23 -20 36
-6 36 6 0 10 -4 10 -9z m70 -1 c0 -5 -2 -10 -4 -10 -3 0 -8 5 -11 10 -3 6 -1
10 4 10 6 0 11 -4 11 -10z m1380 -200 c39 -39 15 -110 -36 -110 -51 0 -69 84
-26 117 24 18 39 16 62 -7z m1093 -14 c4 -10 1 -13 -8 -9 -8 3 -12 9 -9 14 7
12 11 11 17 -5z m-3334 -168 c32 -57 -20 -109 -79 -78 -25 13 -28 71 -4 95 24
23 66 15 83 -17z m-1990 -235 c18 -68 24 -140 12 -147 -7 -5 -6 -14 4 -29 8
-13 44 -137 79 -277 36 -140 72 -282 81 -314 33 -123 -3 -107 -90 38 -153 258
-204 467 -160 654 15 62 40 112 56 112 4 0 13 -17 18 -37z m4551 -69 c-18 -21
-24 -10 -8 15 7 12 14 17 16 11 2 -6 -2 -17 -8 -26z m422 14 c-7 -7 -12 -8
-12 -2 0 14 12 26 19 19 2 -3 -1 -11 -7 -17z m-3982 -43 c0 -8 -4 -15 -10 -15
-5 0 -10 7 -10 15 0 8 5 15 10 15 6 0 10 -7 10 -15z m3740 -555 c0 -11 -4 -20
-9 -20 -5 0 -7 9 -4 20 3 11 7 20 9 20 2 0 4 -9 4 -20z m-856 -2282 c3 -24 8
-59 11 -78 3 -19 9 -51 12 -70 3 -19 9 -39 13 -45 9 -12 22 -65 16 -65 -2 0
-29 33 -60 73 -31 39 -72 92 -92 116 -19 24 -33 49 -31 55 3 9 100 55 119 56
4 0 9 -19 12 -42z"/>
<path d="M2804 4825 c22 -17 46 -20 46 -6 0 5 -10 11 -22 15 -37 9 -44 6 -24
-9z"/>
<path d="M6280 4270 c20 -13 33 -13 25 0 -3 6 -14 10 -23 10 -15 0 -15 -2 -2
-10z"/>
<path d="M993 6963 c-46 -77 -138 -273 -128 -273 5 0 124 231 152 293 18 41 8
32 -24 -20z"/>
<path d="M7190 6584 c0 -6 7 -19 16 -30 14 -18 14 -18 3 6 -14 31 -19 36 -19
24z"/>
<path d="M7220 6523 c0 -5 9 -21 20 -38 24 -36 26 -26 5 15 -15 29 -25 38 -25
23z"/>
<path d="M753 6395 c-3 -9 -3 -18 -1 -21 3 -3 8 4 11 16 6 23 -1 27 -10 5z"/>
<path d="M731 6314 c0 -11 3 -14 6 -6 3 7 2 16 -1 19 -3 4 -6 -2 -5 -13z"/>
<path d="M3138 4743 c7 -3 16 -2 19 1 4 3 -2 6 -13 5 -11 0 -14 -3 -6 -6z"/>
<path d="M4960 2811 c0 -19 23 -71 31 -71 12 0 11 5 -5 45 -14 33 -26 45 -26
26z"/>
<path d="M4635 1940 c-8 -13 5 -13 25 0 13 8 13 10 -2 10 -9 0 -20 -4 -23 -10z"/>
<path d="M3474 226 c-39 -17 -68 -64 -88 -142 -20 -76 -20 -84 -2 -84 9 0 16
17 21 48 15 103 53 157 114 164 32 4 40 28 9 28 -12 -1 -37 -7 -54 -14z"/>
<path d="M4283 128 c-27 -13 -39 -46 -24 -61 8 -8 11 -7 11 5 0 24 27 41 63
40 37 -1 53 -20 62 -73 4 -21 12 -39 19 -39 17 0 4 96 -16 116 -20 20 -86 27
-115 12z"/>
</g>
</svg>
